<?xml version="1.0" encoding="utf-8"?>
<!-- Generator: Adobe Illustrator 16.0.0, SVG Export Plug-In . SVG Version: 6.00 Build 0)  -->
<!DOCTYPE svg PUBLIC "-//W3C//DTD SVG 1.1//EN" "http://www.w3.org/Graphics/SVG/1.1/DTD/svg11.dtd">
<svg version="1.1" id="Layer_1" xmlns="http://www.w3.org/2000/svg" xmlns:xlink="http://www.w3.org/1999/xlink" x="0px" y="0px"
	 width="525.688px" height="373.078px" viewBox="0 0 525.688 373.078" enable-background="new 0 0 525.688 373.078"
	 xml:space="preserve">
<g id="Grupo_601" transform="translate(-242.891 -439.847)">
	<g id="Camada_1">
		<g id="Arte_-_LOGO_VETOR.cdr">
			<g id="Grupo_18">
				<path id="Caminho_59" fill="#FFFFFF" d="M756.054,669.376h-24.608l-0.936-1.199c0.706-2.527,1.868-2.959,4.4-2.946h22.39
					c-0.173,0.759-0.438,1.399-0.6,2.087C756.534,668.018,756.318,668.706,756.054,669.376z M729.32,653.22h27.356
					c4.654-0.029,3.234,2.946,2.693,5.181c-7.806,0-15.612,0-23.419,0c-3.672,0-5.637,0.212-8.944,2.866
					c-5.789,4.647-6.277,12.826-0.361,14.929c2.593,0.922,34.586,0.458,34.857,0.288c0.734-0.777,3.809-12.186,4.449-14.2
					c0.744-2.33,1.486-4.792,2.182-7.142c0.768-2.588,0.673-5.039-1.347-7.059c-2.236-2.234-4.517-1.908-7.417-1.908h-28.185
					C730.734,648.055,729.321,651.475,729.32,653.22z"/>
				<path id="Caminho_31" fill="#FFFFFF" d="M468.122,669.388l-24.646-0.013l-0.62-0.675c-0.316-2.679,1.491-3.486,3.882-3.469
					h22.591L468.122,669.388z M441.495,653.075c1.005,0.367,23.067,0.168,27.213,0.143c1.367-0.008,2.618-0.017,3.15,1.408
					c0.245,1.274,0.085,2.594-0.458,3.772h-23.626c-3.468,0-5.808,0.384-8.855,2.955c-5.14,4.337-6.618,12.53-0.245,14.841
					c2.191,0.794,19.722,0.432,23.4,0.432c2.822,0,9.377,0.422,11.687-0.332c1.649-5.055,3.234-11.291,4.8-15.921
					c0.801-2.36,1.977-5.995,1.969-8.399c-0.011-3.096-2.187-4.682-4.767-5.594c-1.469-0.52-25.805-0.146-30.888-0.201
					c-1.159-0.012-1.601-0.313-1.868,0.621C442.609,648.177,441.258,652.425,441.495,653.075z"/>
				<path id="Caminho_32" fill="#FFFFFF" d="M553.054,669.376h-24.608l-0.936-1.199c0.706-2.527,1.868-2.959,4.4-2.946h22.39
					c-0.173,0.759-0.438,1.399-0.6,2.087C553.534,668.018,553.318,668.706,553.054,669.376z M526.32,653.22h27.356
					c4.654-0.029,3.234,2.946,2.693,5.181c-7.806,0-15.612,0-23.419,0c-3.672,0-5.638,0.212-8.944,2.866
					c-5.789,4.647-6.278,12.826-0.362,14.929c2.594,0.922,34.587,0.458,34.858,0.288c0.734-0.777,3.809-12.186,4.449-14.2
					c0.744-2.33,1.486-4.792,2.182-7.142c0.768-2.588,0.673-5.039-1.347-7.059c-2.236-2.234-4.517-1.908-7.417-1.908h-28.186
					C527.734,648.055,526.321,651.475,526.32,653.22z"/>
				<path id="Caminho_34" fill="#FFFFFF" d="M652.26,676.481c0.442,0.162,7.027,0.535,7.714-0.287
					c0.365-0.92,0.668-1.863,0.905-2.823l5.951-20.151h13.678c-0.208,0.854-0.593,1.984-0.876,2.854l-4.289,14.355
					c-0.438,1.8-1.521,4.285-1.674,5.99c1.367,0.121,6.828,0.534,7.614,0.154c0.69-0.334,4.958-15.641,5.556-17.439l1.751-5.914
					c3.593,0,7.189,0.016,10.78,0c1.672-0.01,3.205,0.375,2.748,2.322c-1.415,6.021-4.516,14.446-6.067,20.881
					c0.614,0.113,1.235,0.184,1.858,0.213c7.443,0.025,5.848,0.77,7.493-4.744l3.707-12.452c1.322-4.485,5.144-13.274-4.77-13.259
					c-14.438,0.021-28.875,0.021-43.313,0l-1.183,3.582c-0.423,1.301-0.761,2.563-1.177,3.801c-0.821,2.432-1.586,5.137-2.252,7.691
					c-1,3.838-2.739,8.816-3.938,13.258c-0.238,0.883-0.621,0.873-0.219,1.978V676.481z"/>
				<path id="Caminho_35" fill="#FFFFFF" d="M551.601,716.189H528.8c-3.862,0.028-2.435-2.839-1.494-3.571
					c1.01-0.787,1.908-0.577,3.155-0.574h22.383C552.53,713.454,552.114,714.839,551.601,716.189z M525,699.705
					c1.3,0.368,22.852,0.142,27.226,0.117c3.758-0.022,3.941,2.44,2.689,5.39H531.5c-3.224,0-6.093,0.023-8.965,2.846
					c-1.037,0.904-1.953,1.939-2.725,3.078c-2.774,4.143-2.593,9.864,2.387,11.66c2.387,0.859,8.5,0.437,11.375,0.437H557.2
					l2.442-7.915c0.918-3.253,4.593-14.362,4.534-16.292c-0.047-2.774-1.904-5.192-4.573-5.952
					c-2.446-0.626-26.565-0.248-31.215-0.3c-2.258-0.023-1.85,1.024-2.371,2.81C525.733,696.562,524.73,698.822,525,699.705z"/>
				<path id="Caminho_36" fill="#FFFFFF" d="M709.937,716.189c-0.344,1.384-2.021,5.954-1.743,6.911
					c1.055,0.316,21.058,0.132,23.918,0.132c7.128,0,14.356,1.216,19.151-5.093c5.4-7.101,2.442-13.793-4.852-13.758
					c-2.456,0.012-23.746,0.188-24.2-0.047c-1.332-0.686-1.727-4.537,3.683-4.51h30.258l0.992-3.357
					c0.463-1.181,0.757-2.422,0.872-3.685c-5.829,0-30.264-0.337-33.968,0.226c-8.956,1.363-15.286,16-4.917,18.34
					c1.946,0.438,21.77-0.283,25.4,0.093c3.31,0.342,1.83,3.782-0.477,4.464C741.909,716.54,714.514,716.189,709.937,716.189
					L709.937,716.189z"/>
				<path id="Caminho_37" fill="#FFFFFF" d="M659.369,704.591c-2.747,8.1-1.266,11.6-11.4,11.6h-11.604
					c-8.558,0-7.149-2.143-5.101-9.036c1.932-6.505,2.893-7.328,10.078-7.328h11.601c1.672,0,3.819-0.3,5.3,0.505
					C659.723,701.136,659.873,703.106,659.369,704.591L659.369,704.591z M635.329,692.99c-1.336-0.011-2.653,0.309-3.835,0.933
					c-6.6,3.127-7.813,8.707-9.578,15.282c-0.6,2.241-2.049,5.986-1.673,8.185c1.2,7.02,8.748,5.843,14.05,5.843
					c2.968,0,18.166,0.2,19.783-0.111c10.272-1.989,11.075-9.021,13.318-16.31c0.765-2.483,2.012-5.572,1.664-8.18
					c-0.956-7.16-8.737-5.849-14.041-5.849C651.296,692.783,637.917,692.483,635.329,692.99L635.329,692.99z"/>
				<path id="Caminho_38" fill="#FFFFFF" d="M649.245,669.5c-1.1-0.35-20.771-0.114-24.705-0.114c-2.107,0-4.7-1.795-4.157-4.033
					c1.091-0.328,27.256-0.122,30.7-0.122c0.827-2.218,1.452-4.505,1.866-6.835h-30.88c0.576-2.129,2.899-3.769,4.736-4.588
					c2.321-1.034,5.987-0.592,8.734-0.592c3.178,0,16.634,0.161,18.6-0.049c0.998-2.232,1.71-4.583,2.121-6.994
					c-4.731,0-26.892-0.361-29.727,0.324c-4.129,1-6.32,2.779-9.183,5.734c-2.689,2.775-3.659,6.843-4.678,10.447
					c-1.162,4.116-1.991,7.756,1.308,11.254c2.989,3.17,8.446,2.69,12.437,2.69l18.866,0.007c1.316,0.006,2.053,0.155,2.495-1.236
					C648.094,674.401,649.419,670.221,649.245,669.5L649.245,669.5z"/>
				<path id="Caminho_39" fill="#FFFFFF" d="M704.066,723.164c1.018-2.179,1.757-4.476,2.199-6.839
					c-2.11-0.675-20.965,0.264-24.705-0.154c-2.279-0.255-4.381-1.632-4.37-4.123h23.421c1.885,0,6.026,0.399,7.531-0.345
					c0.153-0.462,0.294-1.065,0.455-1.616l1.34-4.875h-30.879c0.158-1.768,3.071-4.092,4.613-4.711
					c2.578-1.033,5.742-0.676,8.649-0.676h18.858c0.45-1.148,2.177-5.989,1.947-6.889c-0.652-0.235-25.568-0.364-27.417-0.125
					c-7.086,0.77-12.991,5.771-14.915,12.634c-0.957,3.112-2.942,8.28-1.959,11.433c2.259,7.227,8.671,6.354,14.367,6.354
					C685.967,723.232,702.816,723.382,704.066,723.164L704.066,723.164z"/>
				<path id="Caminho_40" fill="#FFFFFF" d="M573.778,669.376c0.662-2.744,1.575-5.326,2.354-8l2.413-8.152h18.03
					c2.534,0,5.833-0.472,7.219,1.899c0.707,1.114,0.884,2.484,0.485,3.742c-1.066,3.532-1.578,6.677-4.675,8.987
					c-2.48,1.85-4.523,1.529-7.589,1.529L573.778,669.376z M563.623,676.419c2.007,0.516,25.688,0.184,29.845,0.209
					c7.974,0.123,15.054-5.077,17.322-12.722c1.646-5.873,4.715-12.153-1.654-16.407c-2.163-1.443-3.779-1.322-6.344-1.322h-30.257
					l-7.86,26.322C564.247,673.784,563.896,675.093,563.623,676.419z"/>
				<path id="Caminho_41" fill="#FFFFFF" d="M517.432,704.366c-0.7-0.307-16.843-0.382-17.956-0.093
					c-0.846,0.685-1.938,5.462-2.17,6.737h9.947c-0.288,1.076-1.03,4.52-1.729,5.107c-1.44,0.324-16.05,0.188-17.48-0.2
					c-2.688-0.725-3.673-2.969-3.025-5.6c0.436-1.765,1.367-5.101,2.341-6.56c3.271-4.888,8.767-3.937,13.885-3.937
					c2.387,0,16.566,0.264,17.643-0.181c0.535-0.693,2.142-5.983,1.866-6.666c-1.061-0.5-14.312-0.2-16.607-0.2
					c-4.618,0-11.6-0.646-15.712,1.28c-3.746,1.703-6.83,4.587-8.779,8.211c-1.287,2.457-3.76,10.767-3.366,13.367
					c0.77,5.08,4.399,7.553,9.399,7.601h25.519c1.256-0.138,1.229-1.456,1.574-2.57c0.345-1.114,0.637-2.264,0.963-3.387
					C514.232,715.606,517.693,705.116,517.432,704.366z"/>
				<path id="Caminho_42" fill="#FFFFFF" d="M515.79,676.458c0.937-2.24,1.646-4.568,2.116-6.949
					c-1.5-0.461-16.692-0.133-19.564-0.133c-2.771,0-6.511,0.7-8.557-1.39c-2.113-2.16-0.4-5.4,0.216-7.776
					c0.435-2.404,1.91-4.492,4.03-5.707c2.562-1.736,5.438-1.283,8.663-1.283c2.148,0,19.3,0.174,19.837-0.06
					c0.699-0.3,2.272-6.251,2.338-6.983c-9.253,0-18.523,0.054-27.774-0.006c-3.061-0.019-7.268,2.234-9.584,4.301
					c-2.558,2.307-4.375,5.318-5.223,8.658c-1.01,3.445-2.88,7.693-1.8,11.316c1.984,6.688,8.826,6.179,14.542,6.179
					C498.77,676.626,514.236,676.878,515.79,676.458z"/>
				<path id="Caminho_43" fill="#FFFFFF" d="M561.674,723.1c1.113,0.339,8.101,0.131,9.824,0.133
					c3.376,0.005,2.562-0.256,6.715-3.438c3.8-2.912,7.694-5.9,11.376-8.931c3.666-3.015,7.62-5.813,11.277-8.819l9.861-7.753
					c1-0.825,1.158-0.288,1.184-1.509l-11.573,0.033c-0.777,0.156-20.188,15.8-24.015,18.667c-1.454,1.089-2.94,2.491-4.41,3.464
					c0.199-0.932,0.458-1.85,0.774-2.748l4.873-16.465c0.189-0.719,0.833-2.206,0.641-2.814c-1.175-0.393-6.141-0.137-7.739-0.137
					c-1.538,3.99-3.029,10.264-4.605,15.074c-0.807,2.459-1.412,5-2.205,7.531C563.193,716.86,561.351,721.975,561.674,723.1
					L561.674,723.1z"/>
				<path id="Caminho_44" fill="#FFFFFF" d="M708.093,676.141c0.982,0.701,2.383,0.484,3.708,0.484c1.951,0,3.844,0.5,4.511-0.671
					l6.567-22.021c0.4-1.192,0.847-2.658,1.133-3.838c0.452-1.277,0.804-2.588,1.054-3.92c-1.935,0-3.869,0.008-5.801,0
					c-0.784,0-2.043-0.301-2.399,0.5c-0.079,0.177-0.167,0.765-0.294,1.153l-4.671,15.841c-0.14,0.357-0.259,0.723-0.357,1.094
					L708.093,676.141z"/>
				<path id="Caminho_45" fill="#FFFFFF" d="M606.316,723.232h7.622c0.786-1.084,3.938-12.388,4.691-15.031l3.438-11.478
					c0.236-0.801,1.12-3.154,0.884-3.787c-1.076-0.42-6.179-0.15-7.725-0.15l-6.826,22.592
					C607.901,717.449,606.318,721.393,606.316,723.232z"/>
				<path id="Caminho_50" fill="#FFFFFF" d="M638.231,690.5c1.199-0.022,1.017-0.459,2.069-0.831
					c1.686-0.543,3.485-0.623,5.212-0.232l7.632,1.486c1.989,0.032,4.022-0.009,6.019-0.009c0.888-1.88,1.649-3.817,2.279-5.8
					c-1.189,0.042-2.373,0.174-3.542,0.395c-1.435,0.166-5.245-0.633-7-0.832c-2.77-0.312-6.4-2.058-9.892,0.517
					C639.55,686.628,638.578,688.484,638.231,690.5z"/>
				<path id="Caminho_52" fill="#FFFFFF" d="M278.458,812.925l0.062-0.063C278.52,812.862,278.438,812.9,278.458,812.925z"/>
				<path id="Caminho_53" fill="#FFFFFF" d="M280.116,793.66l0.062-0.062C280.178,793.598,280.1,793.639,280.116,793.66z"/>
			</g>
			<g id="Grupo_19" transform="translate(-277.878 53.321)">
				<path id="Caminho_54" fill="#0000FF" d="M555.353,585.703c0-2.959-0.929-8.232,0.466-12.4
					c2.211-0.737,10.423,0.373,13.528,0.375c-0.267,2.891-7.518,7.409-10.08,9.225C558.159,583.684,556.588,585.591,555.353,585.703
					z M649.113,594.654c-5.276-2.029-16.479-8.454-23.473-11.229c-3.842-1.525-8.241-3.56-12.079-5.271
					c-4.149-1.85-8.5-3.299-12.711-4.918c-12.423-4.779-30.1-9.86-43.543-7.679c-7.8,1.265-10.235,6.273-11,6.627l-17.542,0.091
					c-6.468,0-10.241,1.224-6.531,8.488c1.979,3.873,3.66,8.106,5.645,11.982c0.972,1.899,1.887,3.938,2.8,5.872
					c0.771,1.63,1.581,5.1,3.4,5.549c0.063-14.359,12.856-8.01,16.446-4.971c2.52,2.136,5.6,4.135,8.247,6.301
					c5.733,4.699,14.857,11.752,20.023,16.631c1.1,1.043,2.806,2.691,3.981,3.575c4.053,3.044,27.306,25.958,30,29.043
					c5.209,5.968,17.399,18.069,21.057,22.872l13.813,15.857c1.627,1.6,5.272,7.344,7.063,7.765c0-6.9,0-13.8,0-20.7
					c0.032-12.51,1.45-24.978,4.228-37.175c1.258-5.371,2.906-10.644,4.932-15.774c11.089-27.5,35.462-47.474,56.393-67.84
					c10.866-10.573,21.8-19.554,25.812-36.3c2.554-10.651,0.535-11.844,0.725-18.872l-0.944-14.442
					c-0.319-2.916-0.065-5.259-0.615-9.734c-0.301-2.424-0.158-12.286-0.967-14.98c-1.235,0.619-1.961,3.076-2.612,4.382
					c-3.122,6.26-9.188,16.183-13.872,21.1c-2.134,2.242-5.068,4.546-7.236,6.755c-9.242,9.417-19.384,18.186-28.687,27.554
					c-9.437,9.5-19.381,17.559-27.981,27.982c-4.291,5.293-7.858,11.135-10.608,17.37c-1.396,3.451-2.52,7.004-3.359,10.63
					C648.818,585.136,649.113,590.499,649.113,594.654L649.113,594.654z"/>
				<path id="Caminho_55" fill="#0000FF" d="M619.73,572.555c-0.284-1.387-5.023-8.237-6.143-10.084
					c-6.228-10.277-13.063-26.036-11.425-37.968c2.262-16.486,13.537-29.588,24.767-41.265c2.689-2.8,5.392-5.652,8.123-8.384
					c1.376-1.376,2.5-2.95,3.92-4.195c7.519-6.578,14.068-14.733,16.862-24.548c2.164-7.6,1.937-14.345,0.744-22
					c-1.026-6.588-0.957-14.477-2.323-22.575l-0.655-7.459c-0.125-2.531-0.407-5.052-0.844-7.548
					c-0.918,0.455-7.281,10.356-8.593,12.113c-3.021,4.039-6.46,7.452-9.44,11.266c-1.43,1.83-3.5,3.625-4.917,5.436
					c-2.285,2.909-21.912,23.16-25.399,26.646c-3.472,3.469-7.021,6.778-10.5,10.2c-10.523,10.356-21.509,21.23-27,35.394
					c-1,2.544-1.858,5.141-2.571,7.78c-0.722,2.929-1.201,5.913-1.433,8.92c-0.192,13.809,2.136,20.894,9.229,32.486
					c4.892,7.994,13.219,15.435,20.652,21.041C597.51,561.384,614.492,571.764,619.73,572.555z"/>
				<path id="Caminho_56" fill="#0000FF" d="M639.038,582.903c0.269-0.7-0.284-4.8-0.278-6.156c-0.005-2.272,0.155-4.541,0.479-6.79
					c2-15.725,9.559-26.575,21.141-36.777c1.236-1.089,2.38-2.6,3.684-3.591c1.008-0.767,2.959-2.5,3.879-3.4
					c4.919-4.785,10.101-9.271,14.967-14.136c6.395-6.391,15.255-16.373,18.586-24.783c1.269-3.2,2.828-8.375,2.71-11.767
					l-1.042-13.2c-0.068-1.204-0.076-2.411-0.022-3.615c-0.008-1.263-0.307-2.077-0.3-3.333c0-1.442-0.212-2.085-0.278-3.359
					c-0.061-1.161,0.101-2.488,0-3.637c-0.297-2.229-0.481-4.473-0.552-6.721c0.021-2.413-0.448-4.419-0.568-6.705
					c-0.061-1.165,0.078-2.488,0.018-3.653c-0.066-1.275-0.3-1.908-0.284-3.355c-0.045-2.246-0.233-4.486-0.564-6.708
					c-1.246,0.671-2.082,3.915-2.801,5.316c-2.744,5.442-6.027,10.597-9.8,15.385c-7.438,9.9-15.64,17.742-24.139,26.227
					c-2.632,2.628-5.761,5.829-8.538,8.25c-2.866,2.5-6.141,5.316-8.805,7.984c-2.625,2.629-6.357,5.118-8.975,7.815
					c-2.682,2.765-5.965,5.1-8.318,8.189c-2.724,3.579-4.675,5.594-7.163,9.625c-5.041,8.164-6.411,18.3-4.976,27.684
					c1.217,8.873,3.998,17.459,8.214,25.36C627.089,566.44,636.291,581.632,639.038,582.903z"/>
			</g>
		</g>
	</g>
	<g id="Grupo_564" transform="translate(83.032 -39)">
		<g id="Grupo_562" transform="translate(479.901 771.105)">
			<path id="Caminho_46" fill="#FFFFFF" d="M152.317,17.46l-8.2,0.058l0.662-1.711l8.2-0.063L152.317,17.46z M140.566,11.322h14.766
				l-0.899,1.73c-4.524,0.473-15.394-2.26-17.728,5.936c-1.385,4.861,4.2,3.847,7.4,3.847h12.108l2.166-4.034
				c0.773-1.545,1.3-2.9,2.065-4.427c1.32-2.625,4.527-7.462-0.06-8.4c-4.11-0.464-8.257-0.524-12.379-0.182
				c-2.606,0.399-7.179,2.452-7.445,5.532L140.566,11.322z"/>
			<path id="Caminho_47" fill="#FFFFFF" d="M109.563,17.521h-7.974c0.706-2.188,1.699-4.272,2.953-6.199h7.974
				C111.788,13.5,110.796,15.582,109.563,17.521z M105.134,6.01c-1.453-0.072-2.882,0.39-4.017,1.3
				c-1.061,0.691-1.966,1.596-2.658,2.656c-1.181,1.779-2.645,5.225-3.666,7.257c-2.125,4.222-0.533,5.634,3.548,5.612
				c15.437-0.081,14.427,1.986,21.072-11.408c3.559-7.172-5.421-5.667-11.623-5.713C105.427,5.695,106.787,5.609,105.134,6.01z"/>
			<path id="Caminho_48" fill="#FFFFFF" d="M69.694,22.834h6.5l5.616-11.827h8.265c-0.707,2.994-5.1,9.277-5.316,11.83h6.5
				l5.88-12.462c1.473-4.063-0.645-4.851-3.516-4.829c-3.049,0.023-6.105,0-9.156,0l2.052-4.557l-6.482,0.006
				c-1.08,1.711-10,20.4-10.335,21.839H69.694z"/>
			<path id="Caminho_49" fill="#FFFFFF" d="M176.009,15.747l-0.9,1.729l-15.344,0.043c-0.426,1.788-1.381,3.329,0.521,4.791
				c1.25,0.96,4.338,0.521,5.976,0.521c3.842,0,8.56,0.818,11.814-1.18c2.008-1.232,5.73-5.791,3.182-7.899
				c-1.477-1.224-10.161-0.657-12.634-0.657l0.663-1.721l15.216-0.053c1.034-1.412,1.465-3.392,0.011-4.662
				c-1.357-1.186-4.061-0.647-5.849-0.647c-4.026,0-8.937-0.771-12.104,1.183c-2.149,1.325-5.79,5.789-3.193,7.91
				C164.844,16.31,173.508,15.747,176.009,15.747z"/>
			<path id="Caminho_51" fill="#FFFFFF" d="M114.605,22.846l6.474-0.011l5.907-11.512h12.622c1.029-1.227,1.14-2.979,0.272-4.323
				c-0.952-1.441-3.233-0.986-4.922-0.985h-12.107l-8.246,16.836V22.846z"/>
			<path id="Caminho_57" fill="#FFFFFF" d="M7.678,5.575c2.855,0,17.161-0.393,18.682,0.226c1.142,1-0.671,2.83-1.24,3.13
				c-3.632,1.919-17.395-3.43-21.583,5.132C2.676,15.825,0.382,20.043,0,21.654h24.512c1.543-0.429,3.081-2.709,3.839-4.246H8.564
				l1.774-3.641c3.786,0,14.199,0.578,17-0.429c2.062-0.743,3.782-2.21,4.842-4.127c6.063-10.851,1.116-9.101-12.101-9.101
				c-2.953,0-5.707-0.399-8.08,0.801C10.136,1.859,8.179,3.439,7.678,5.575z"/>
			<path id="Caminho_58" fill="#FFFFFF" d="M52.858,13.46H39.572c1.601-1.135,16.46-7.19,16.833-7.281l-3.547,7.279V13.46z
				 M30.487,17.637c2.294,2.308,4.061,1.589,9.084,1.589c3.213,0,7.535-0.248,10.606,0.078l-1.13,2.271l6.471,0.082
				c0.047-0.06,0.118-0.215,0.135-0.17l0.462-0.74c1.689-3.4,1.084,0.05,2.38-2.408c0.719-1.359,1.285-2.871,2.069-4.246
				c-0.456-1.043,0.181-0.275-0.861-0.832l6.234-13.107c-7.25-0.139-5.864-0.688-11.426,1.654L36.026,9.822
				c-1.53,0.493-2.888,1.413-3.914,2.651C30.372,14.245,30.213,14.973,30.487,17.637L30.487,17.637z"/>
		</g>
	</g>
</g>
</svg>
