<svg xmlns="http://www.w3.org/2000/svg" width="246.789" height="29.827" viewBox="0 0 246.789 29.827">
  <g id="Grupo_567" data-name="Grupo 567" transform="translate(-479.901 -733.105)">
    <g id="Grupo_562" data-name="Grupo 562" transform="translate(479.901 733.105)">
      <path id="Caminho_46" data-name="Caminho 46" d="M732.484,752.837l-10.917.078.882-2.278,10.907-.083Zm-15.633-8.173H736.5l-1.2,2.3c-6.021.629-20.484-3.008-23.59,7.9-1.843,6.47,5.593,5.12,9.851,5.12H737.68l2.883-5.368c1.03-2.057,1.726-3.853,2.75-5.893,1.756-3.493,6.024-9.929-.079-11.181-2.9-.592-13.33-.718-16.474-.242-3.468.527-9.552,3.264-9.908,7.364Z" transform="translate(-529.785 -730.374)" fill="#fff"/>
      <path id="Caminho_47" data-name="Caminho 47" d="M702.411,752.887H691.8c.343-1.444,2.734-6.89,3.931-8.249h10.61C706.048,745.914,703.514,751.633,702.411,752.887Zm-5.9-15.319c-1.007.242-1.948-.521-5.344,1.729a12.1,12.1,0,0,0-3.537,3.535c-1.572,2.369-3.52,6.953-4.879,9.658-2.828,5.619-.711,7.5,4.72,7.468,20.542-.108,19.2,2.644,28.043-15.182,4.735-9.544-7.214-7.542-15.469-7.6C696.906,737.149,698.717,737.036,696.516,737.568Z" transform="translate(-556.609 -730.35)" fill="#fff"/>
      <path id="Caminho_48" data-name="Caminho 48" d="M664.55,762.5H673.2l7.473-15.317,11,0c-.94,3.878-6.787,12.015-7.075,15.321h8.647l7.825-16.14c1.961-5.262-.858-6.283-4.679-6.254-4.058.03-8.125,0-12.186,0l2.731-5.9-8.626.01c-1.438,2.215-13.3,26.423-13.754,28.282Z" transform="translate(-571.802 -732.888)" fill="#fff"/>
      <path id="Caminho_49" data-name="Caminho 49" d="M749.763,750.373l-1.195,2.3-20.419.057c-.568,2.38-1.838,4.429.694,6.375,1.663,1.278,5.772.694,7.951.694,5.112,0,11.391,1.089,15.722-1.57,2.672-1.64,7.625-7.709,4.233-10.518-1.965-1.627-13.522-.874-16.811-.874l.882-2.291,20.247-.07c1.377-1.88,1.95-4.514.015-6.2-1.805-1.578-5.4-.862-7.782-.862-5.359,0-11.894-1.026-16.109,1.573-2.86,1.764-7.7,7.7-4.249,10.526C734.905,751.119,746.435,750.373,749.763,750.373Z" transform="translate(-515.536 -730.195)" fill="#fff"/>
      <path id="Caminho_51" data-name="Caminho 51" d="M696.067,759.767l8.615-.015,7.861-15.32,16.8-.006a4.852,4.852,0,0,0,.362-5.753c-1.266-1.917-4.3-1.312-6.55-1.31H707.042l-10.974,22.4Z" transform="translate(-543.554 -730.143)" fill="#fff"/>
      <path id="Caminho_57" data-name="Caminho 57" d="M625.859,740.725c3.8,0,22.837-.509,24.861.292,1.519,1.3-.893,3.664-1.65,4.052-4.833,2.484-23.148-4.441-28.721,6.645-1.148,2.282-4.2,7.742-4.707,9.829h32.618c2.054-.556,4.1-3.509,5.109-5.5h-26.33l2.361-4.712c5.038,0,18.893.749,22.628-.556a11.927,11.927,0,0,0,6.444-5.344c8.069-14.048,1.485-11.778-16.107-11.778-3.931,0-7.595-.523-10.753,1.035C629.13,735.914,626.526,737.959,625.859,740.725Z" transform="translate(-615.641 -733.51)" fill="#fff" fill-rule="evenodd"/>
      <path id="Caminho_58" data-name="Caminho 58" d="M666.874,750.94l-17.681,0c2.125-1.468,21.9-9.309,22.4-9.427l-4.719,9.425Zm-29.77,5.408c3.052,2.987,5.4,2.057,12.089,2.057,4.277,0,10.028-.321,14.114.1l-1.5,2.941,8.612.106c.062-.076.157-.277.18-.218l.614-.96c2.248-4.4,1.443.065,3.168-3.118.955-1.759,1.71-3.716,2.753-5.5-.607-1.35.241-.356-1.146-1.077l8.3-16.97c-9.648-.18-7.8-.891-15.2,2.141l-24.6,10.375a11.269,11.269,0,0,0-5.21,3.434c-2.315,2.294-2.531,3.231-2.163,6.684Z" transform="translate(-596.532 -733.512)" fill="#fff" fill-rule="evenodd"/>
    </g>
  </g>
</svg>
